<svg width="31" height="31" viewBox="0 0 31 31" fill="none" xmlns="http://www.w3.org/2000/svg">
<path d="M15.5 31C23.9777 31 31 23.9927 31 15.5C31 7.02227 23.9777 0 15.485 0C7.00726 0 0 7.02227 0 15.5C0 23.9927 7.02227 31 15.5 31ZM15.5 17.9608C12.5591 17.9458 10.2783 15.485 10.2783 12.2439C10.2633 9.18296 12.5741 6.63214 15.5 6.63214C18.4109 6.63214 20.7067 9.18296 20.7067 12.2439C20.7067 15.485 18.4259 17.9908 15.5 17.9608ZM15.5 28.4642C12.1389 28.4642 8.56776 27.0687 6.30203 24.6229C8.01258 22.0421 11.4487 20.5566 15.5 20.5566C19.5063 20.5566 22.9574 22.0121 24.683 24.6229C22.4172 27.0687 18.8611 28.4642 15.5 28.4642Z" fill="#8E8E8E"/>
</svg>
