<svg xmlns="http://www.w3.org/2000/svg" width="20" height="26"><path d="M5.38 6.302h9.22c.38 0 .665-.308.665-.695a.659.659 0 0 0-.665-.675H5.38a.661.661 0 0 0-.676.675c0 .387.285.695.676.695Zm0 3.432h5.514c.381 0 .666-.307.666-.703a.659.659 0 0 0-.666-.674H5.38a.661.661 0 0 0-.676.674c0 .396.285.703.676.703Zm.18 12.011h8.563c.994 0 1.505-.532 1.505-1.563v-6.835c0-1.04-.51-1.566-1.505-1.566H5.56c-.967 0-1.516.526-1.516 1.566v6.835c0 1.03.55 1.563 1.516 1.563ZM0 22.192C0 24.696 1.238 26 3.63 26h12.406c2.393 0 3.631-1.304 3.631-3.808V3.817c0-2.504-1.238-3.808-3.63-3.808H3.63C1.238.01 0 1.313 0 3.817v18.375Zm1.978-.125V3.942c0-1.22.607-1.877 1.82-1.877h12.07c1.214 0 1.823.657 1.823 1.877v18.125c0 1.22-.61 1.877-1.822 1.877H3.799c-1.214 0-1.821-.657-1.821-1.877Z"/></svg>