<svg xmlns="http://www.w3.org/2000/svg" width="20" height="26"><path d="M14.948 1.35H4.711C4.764.5 5.311 0 6.205 0h7.25c.895 0 1.44.5 1.493 1.35ZM17.182 4.525a6.811 6.811 0 0 0-1.06-.077H3.538c-.373 0-.73.025-1.068.078.121-.992.808-1.56 1.902-1.56h10.916c1.095 0 1.775.567 1.895 1.56ZM3.537 26h12.586c2.326 0 3.537-1.21 3.537-3.514V9.838c0-2.297-1.21-3.506-3.537-3.506H3.537C1.203 6.332 0 7.533 0 9.838v12.648C0 24.796 1.203 26 3.537 26Zm.109-1.91c-1.127 0-1.737-.596-1.737-1.76V10c0-1.171.61-1.76 1.737-1.76h12.368c1.103 0 1.737.589 1.737 1.76v12.33c0 1.164-.634 1.76-1.737 1.76H3.646Z"/><path d="m7.821 20.596 6.27-3.716a.765.765 0 0 0 0-1.333l-6.27-3.73c-.533-.316-1.21-.054-1.21.549v7.68c0 .604.65.888 1.21.55Z"/></svg>