<svg xmlns="http://www.w3.org/2000/svg" width="30" height="26"><path d="M24.218 25.328h3.044c1.833 0 2.738-.88 2.738-2.773V16.56c0-1.893-.905-2.781-2.738-2.781h-3.044c-1.832 0-2.738.888-2.738 2.781v5.994c0 1.893.905 2.773 2.738 2.773ZM13.483 25.328h3.034c1.833 0 2.747-.88 2.747-2.773V16.56c0-1.893-.914-2.781-2.747-2.781h-3.034c-1.833 0-2.747.888-2.747 2.781v5.994c0 1.893.914 2.773 2.747 2.773ZM2.747 25.328h3.035c1.832 0 2.738-.88 2.738-2.773V16.56c0-1.893-.906-2.781-2.738-2.781H2.747C.914 13.78 0 14.668 0 16.56v5.994c0 1.893.914 2.773 2.747 2.773ZM24.218 11.567h3.044c1.833 0 2.738-.878 2.738-2.771V2.8C30 .907 29.095.03 27.262.03h-3.044c-1.832 0-2.738.877-2.738 2.77v5.996c0 1.893.905 2.77 2.738 2.77ZM13.483 11.567h3.034c1.833 0 2.747-.878 2.747-2.771V2.8C19.264.907 18.35.03 16.517.03h-3.034c-1.833 0-2.747.877-2.747 2.77v5.996c0 1.893.914 2.77 2.747 2.77ZM2.747 11.567h3.035c1.832 0 2.738-.878 2.738-2.771V2.8C8.52.907 7.614.03 5.782.03H2.747C.914.03 0 .907 0 2.8v5.996c0 1.893.914 2.77 2.747 2.77Z"/></svg>